<svg xmlns="http://www.w3.org/2000/svg" viewBox="0 0 240 240"><defs><style>.a,.b,.c{fill:none;}.a,.b{stroke:#fafaf8;}.a,.c{stroke-width:5px;}.b{stroke-width:3px;stroke-dasharray:12 12;}.c{stroke:#fafaf8;}</style></defs><title>Untitled-2</title><path class="a" d="M-168.94,483L871.23-557.19"/><path class="a" d="M-242.48,409.44L797.69-630.73"/><path class="b" d="M-205.71,446.21L834.46-594"/><path class="c" d="M170.7,71.1c7.58,12.67,25,56.37,1.86,60C150.86,134.46,142.28,101,170.7,71.1Z"/><path class="c" d="M172.17,73.64c13.75,28.93,27.28,57,36.65,13.12"/><path class="c" d="M111.59,139.66c20.16,49.92-8,74.88-23.62,66C55.43,187,58,124.6,88.6,88"/><path class="c" d="M149.55,148.88s-6.26,23.31-13.7,22.53c-15.07-1.59-16.68-19.78-47.56-80.74"/></svg>
